<svg viewBox="0 0 1000 1000" width="1000" height="1000" xmlns="http://www.w3.org/2000/svg">
<rect x="0" y="0" width="1000" height="1000" fill="#1e1e1e" stroke="#000" stroke-width="4"/>
<text x="10" y="20" font-family="monospace" font-size="16" fill="#0f0">MASSIVE AI-LAYOUT (40+ COMPS) + CORRIDOR ROUTING</text>
<polyline points="300,700 290,700 280,700 270,700 260,700 250,700 250,690 250,680 250,670 250,660 250,650" fill="none" stroke="#FF3366" stroke-width="2" stroke-linejoin="round"/>
<polyline points="250,650 260,650 270,650 280,650 290,650 300,650 310,650 320,650 330,650 340,650 350,650" fill="none" stroke="#33CCFF" stroke-width="2" stroke-linejoin="round"/>
<polyline points="350,650 350,660 350,670 350,680 350,690 350,700 360,700 370,700 380,700 390,700 400,700 410,700 420,700 430,700 440,700 450,700 460,700 470,700 480,700 490,700 500,700 510,700 520,700 530,700 540,700 550,700 560,700 570,700 580,700 590,700 600,700 610,700 620,700 630,700 640,700 650,700 660,700 670,700 680,700 690,700 700,700" fill="none" stroke="#66FF33" stroke-width="2" stroke-linejoin="round"/>
<polyline points="700,700 690,700 680,700 670,700 660,700 650,700 650,690 650,680 650,670 650,660 650,650 650,640 650,630 650,620 650,610 650,600 650,590 650,580 650,570 650,560 650,550 650,540 650,530 650,520 650,510 650,500 650,490 650,480 650,470 650,460 650,450 650,440 650,430 650,420 650,410 650,400 650,390 650,380 650,370 650,360 650,350 650,340 650,330 650,320 650,310 650,300 650,290 650,280 650,270 650,260 650,250" fill="none" stroke="#FFCC00" stroke-width="2" stroke-linejoin="round"/>
<polyline points="650,250 660,250 670,250 680,250 690,250 700,250 710,250 720,250 730,250 740,250 750,250" fill="none" stroke="#CC33FF" stroke-width="2" stroke-linejoin="round"/>
<polyline points="750,250 740,250 730,250 720,250 710,250 700,250 690,250 680,250 670,250 660,250 650,250 640,250 630,250 620,250 610,250 600,250 590,250 580,250 570,250 560,250 550,250 540,250 530,250 520,250 510,250 500,250 490,250 480,250 470,250 460,250 450,250 440,250 430,250 420,250 410,250 400,250 390,250 380,250 370,250 360,250 350,250 340,250 330,250 320,250 310,250 300,250 290,250 280,250 270,250 260,250 250,250 250,260 250,270 250,280 250,290 250,300" fill="none" stroke="#FF3366" stroke-width="2" stroke-linejoin="round"/>
<polyline points="250,300 250,310 250,320 250,330 250,340 250,350 250,360 250,370 250,380 250,390 250,400 250,410 250,420 250,430 250,440 250,450 250,460 250,470 250,480 250,490 250,500 250,510 250,520 250,530 250,540 250,550 260,550 270,550 280,550 290,550 300,550 310,550 320,550 330,550 340,550 350,550 360,550 370,550 380,550 390,550 400,550 410,550 420,550 430,550 440,550 450,550 460,550 470,550 480,550 490,550 500,550 510,550 520,550 530,550 540,550 550,550 560,550 570,550 580,550 590,550 600,550 610,550 620,550 630,550 640,550 650,550 660,550 670,550 680,550 690,550 700,550 710,550 720,550 730,550 740,550 750,550 760,550 770,550 780,550 790,550 800,550 810,550 820,550" fill="none" stroke="#33CCFF" stroke-width="2" stroke-linejoin="round"/>
<polyline points="820,550 830,550 840,550 850,550 860,550 870,550" fill="none" stroke="#66FF33" stroke-width="2" stroke-linejoin="round"/>
<polyline points="50,600 50,610 50,620 50,630 50,640 50,650 50,660 50,670 50,680 50,690 50,700 60,700 70,700 80,700 90,700 100,700 110,700 120,700 130,700 140,700 150,700 160,700 170,700 180,700 190,700 200,700 210,700 220,700 230,700 240,700 250,700 260,700 270,700 280,700 290,700 300,700" fill="none" stroke="#FFCC00" stroke-width="2" stroke-linejoin="round"/>
<polyline points="300,700 310,700 320,700 330,700 340,700 350,700 360,700 370,700 380,700 390,700 400,700 410,700 420,700 430,700 440,700 450,700 460,700 470,700 480,700 490,700 500,700 510,700 520,700 530,700 540,700 550,700 560,700 570,700 580,700 590,700 600,700 610,700 620,700 630,700 640,700 650,700 660,700 670,700 680,700 690,700 700,700" fill="none" stroke="#CC33FF" stroke-width="2" stroke-linejoin="round"/>
<polyline points="700,700 690,700 680,700 670,700 660,700 650,700 650,690 650,680 650,670 650,660 650,650 650,640 650,630 650,620 650,610 650,600 650,590 650,580 650,570 650,560 650,550 650,540 650,530 650,520 650,510 650,500 650,490 650,480 650,470 650,460 650,450 650,440 650,430 650,420 650,410 650,400 650,390 650,380 650,370 650,360 650,350 650,340 650,330 650,320 650,310 650,300 650,290 650,280 650,270 650,260 650,250" fill="none" stroke="#FF3366" stroke-width="2" stroke-linejoin="round"/>
<polyline points="650,250 660,250 670,250 680,250 690,250 700,250 710,250 720,250 730,250 740,250 750,250" fill="none" stroke="#33CCFF" stroke-width="2" stroke-linejoin="round"/>
<polyline points="750,250 740,250 730,250 720,250 710,250 700,250 690,250 680,250 670,250 660,250 650,250 640,250 630,250 620,250 610,250 600,250 590,250 580,250 570,250 560,250 550,250 540,250 530,250 520,250 510,250 500,250 490,250 480,250 470,250 460,250 450,250 440,250 430,250 420,250 410,250 400,250 390,250 380,250 370,250 360,250 350,250 340,250 330,250 320,250 310,250 300,250 290,250 280,250 270,250 260,250 250,250 250,260 250,270 250,280 250,290 250,300" fill="none" stroke="#66FF33" stroke-width="2" stroke-linejoin="round"/>
<polyline points="250,300 250,310 250,320 250,330 250,340 250,350 250,360 250,370 250,380 250,390 250,400 250,410 250,420 250,430 250,440 250,450 250,460 250,470 250,480 250,490 250,500 250,510 250,520 250,530 250,540 250,550 260,550 270,550 280,550 290,550 300,550 310,550 320,550 330,550 340,550 350,550 360,550 370,550 380,550 390,550 400,550 410,550 420,550 430,550 440,550 450,550 460,550 470,550 480,550 490,550 500,550 510,550 520,550 530,550 540,550 550,550 560,550 570,550 580,550 590,550 600,550 610,550 620,550 630,550 640,550 650,550 660,550 670,550 680,550 690,550 700,550 710,550 720,550 730,550 740,550 750,550 760,550 770,550 780,550 790,550 800,550 810,550 820,550" fill="none" stroke="#FFCC00" stroke-width="2" stroke-linejoin="round"/>
<polyline points="820,550 830,550 840,550 850,550 860,550 870,550" fill="none" stroke="#CC33FF" stroke-width="2" stroke-linejoin="round"/>
<polyline points="870,550 860,550 850,550 840,550 830,550 820,550 810,550 800,550 790,550 780,550 770,550 760,550 750,550 740,550 730,550 720,550 720,560 720,570 720,580 720,590 720,600 720,610 720,620 720,630 720,640 720,650 720,660 720,670 720,680" fill="none" stroke="#FF3366" stroke-width="2" stroke-linejoin="round"/>
<polyline points="720,680 720,690 720,700 720,710 720,720" fill="none" stroke="#33CCFF" stroke-width="2" stroke-linejoin="round"/>
<polyline points="720,720 710,720 700,720 690,720 680,720 680,710 680,700 680,690 680,680" fill="none" stroke="#66FF33" stroke-width="2" stroke-linejoin="round"/>
<polyline points="680,680 680,690 680,700 680,710 680,720" fill="none" stroke="#FFCC00" stroke-width="2" stroke-linejoin="round"/>
<polyline points="680,720 680,710 680,700 690,700 700,700 710,700 720,700 730,700 740,700" fill="none" stroke="#CC33FF" stroke-width="2" stroke-linejoin="round"/>
<polyline points="740,700 730,700 720,700 710,700 700,700 690,700 680,700 670,700 660,700" fill="none" stroke="#FF3366" stroke-width="2" stroke-linejoin="round"/>
<polyline points="660,700 660,690 660,680 660,670 660,660 670,660 680,660 690,660 700,660" fill="none" stroke="#33CCFF" stroke-width="2" stroke-linejoin="round"/>
<polyline points="700,660 700,670 700,680 700,690 700,700 700,710 700,720 700,730 700,740" fill="none" stroke="#66FF33" stroke-width="2" stroke-linejoin="round"/>
<polyline points="700,700 690,700 680,700 670,700 660,700 650,700 650,690 650,680 650,670 650,660 650,650 650,640 650,630 650,620 650,610 650,600 650,590 650,580 650,570 650,560 650,550 650,540 650,530 650,520 650,510 650,500 650,490 650,480 650,470 650,460 650,450 650,440 650,430 650,420 650,410 650,400 650,390 650,380 650,370 650,360 650,350 650,340 650,330 650,320 650,310 650,300 650,290 650,280 650,270 650,260 650,250" fill="none" stroke="#FFCC00" stroke-width="2" stroke-linejoin="round"/>
<polyline points="650,250 660,250 670,250 680,250 690,250 700,250 710,250 720,250 730,250 740,250 750,250" fill="none" stroke="#CC33FF" stroke-width="2" stroke-linejoin="round"/>
<polyline points="700,700 690,700 680,700 670,700 660,700 650,700 650,690 650,680 650,670 650,660 650,650 650,640 650,630 650,620 650,610 650,600 650,590 650,580 650,570 650,560 650,550 650,540 650,530 650,520 650,510 650,500 650,490 650,480 650,470 650,460 650,450 650,440 650,430 650,420 650,410 650,400 650,390 650,380 650,370 650,360 650,350 650,340 650,330 650,320 650,310 650,300 650,290 650,280 650,270 650,260 650,250" fill="none" stroke="#FF3366" stroke-width="2" stroke-linejoin="round"/>
<polyline points="700,700 700,690 700,680 700,670 700,660 700,650 700,640 700,630 700,620 700,610 700,600 700,590 700,580 700,570 700,560 700,550 700,540 700,530 700,520 700,510 700,500 700,490 700,480 700,470 700,460 700,450 700,440 700,430 700,420 700,410 700,400 700,390 700,380 700,370 700,360 700,350 700,340 700,330 700,320 700,310 700,300 700,290 700,280 700,270 700,260 700,250 710,250 720,250 730,250 740,250 750,250" fill="none" stroke="#33CCFF" stroke-width="2" stroke-linejoin="round"/>
<polyline points="700,700 690,700 680,700 670,700 660,700 650,700 650,690 650,680 650,670 650,660 650,650 650,640 650,630 650,620 650,610 650,600 650,590 650,580 650,570 650,560 650,550 650,540 650,530 650,520 650,510 650,500 650,490 650,480 650,470 650,460 650,450 650,440 650,430 650,420 650,410 650,400 650,390 650,380 650,370 650,360 650,350 650,340 650,330 650,320 650,310 650,300 650,290 650,280 650,270 650,260 650,250" fill="none" stroke="#66FF33" stroke-width="2" stroke-linejoin="round"/>
<polyline points="650,250 660,250 670,250 680,250 690,250 700,250 710,250 720,250 730,250 740,250 750,250" fill="none" stroke="#FFCC00" stroke-width="2" stroke-linejoin="round"/>
<polyline points="700,700 690,700 680,700 670,700 660,700 650,700 650,690 650,680 650,670 650,660 650,650 650,640 650,630 650,620 650,610 650,600 650,590 650,580 650,570 650,560 650,550 650,540 650,530 650,520 650,510 650,500 650,490 650,480 650,470 650,460 650,450 650,440 650,430 650,420 650,410 650,400 650,390 650,380 650,370 650,360 650,350 650,340 650,330 650,320 650,310 650,300 650,290 650,280 650,270 650,260 650,250" fill="none" stroke="#CC33FF" stroke-width="2" stroke-linejoin="round"/>
<polyline points="650,250 660,250 670,250 680,250 690,250 700,250 710,250 720,250 730,250 740,250 750,250" fill="none" stroke="#FF3366" stroke-width="2" stroke-linejoin="round"/>
<polyline points="700,700 700,690 700,680 700,670 700,660 700,650 700,640 700,630 700,620 700,610 700,600 700,590 700,580 700,570 700,560 700,550 710,550 720,550 730,550 740,550 750,550 760,550 770,550 780,550 790,550 800,550 810,550 820,550" fill="none" stroke="#33CCFF" stroke-width="2" stroke-linejoin="round"/>
<polyline points="820,550 830,550 840,550 850,550 860,550 870,550" fill="none" stroke="#66FF33" stroke-width="2" stroke-linejoin="round"/>
<polyline points="700,700 700,690 700,680 700,670 700,660 700,650 700,640 700,630 700,620 700,610 700,600 700,590 700,580 700,570 700,560 700,550 710,550 720,550 730,550 740,550 750,550 760,550 770,550 780,550 790,550 800,550 810,550 820,550" fill="none" stroke="#FFCC00" stroke-width="2" stroke-linejoin="round"/>
<polyline points="820,550 830,550 840,550 850,550 860,550 870,550" fill="none" stroke="#CC33FF" stroke-width="2" stroke-linejoin="round"/>
<polyline points="50,600 50,590 50,580 50,570 50,560 50,550 50,540 50,530 50,520 50,510 50,500 50,490 50,480 50,470 50,460 50,450 50,440 50,430 50,420 50,410 50,400 50,390 50,380 50,370 50,360 50,350 50,340 50,330 50,320 50,310 50,300 60,300 70,300 80,300 90,300 100,300 110,300 120,300 130,300 140,300 150,300 160,300 170,300 180,300 190,300 200,300 210,300 220,300 230,300 240,300 250,300" fill="none" stroke="#FF3366" stroke-width="2" stroke-linejoin="round"/>
<polyline points="50,600 50,590 50,580 50,570 50,560 50,550 50,540 50,530 50,520 50,510 50,500 50,490 50,480 50,470 50,460 50,450 50,440 50,430 50,420 50,410 50,400 50,390 50,380 50,370 50,360 50,350 50,340 50,330 50,320 50,310 50,300 60,300 70,300 80,300 90,300 100,300 110,300 120,300 130,300 140,300 150,300 160,300 170,300 180,300 190,300 200,300 210,300 220,300 230,300 240,300 250,300" fill="none" stroke="#33CCFF" stroke-width="2" stroke-linejoin="round"/>
<rect x="600" y="600" width="200" height="200" fill="#333333" stroke="#fff" stroke-width="2" stroke-dasharray="5,5" fill-opacity="0.6"/>
<text x="610" y="620" font-family="verdana" font-weight="bold" font-size="14" fill="#aaa">Module_001</text>
<rect x="200" y="600" width="200" height="200" fill="#333333" stroke="#fff" stroke-width="2" stroke-dasharray="5,5" fill-opacity="0.6"/>
<text x="210" y="620" font-family="verdana" font-weight="bold" font-size="14" fill="#aaa">Module_002</text>
<rect x="600" y="200" width="200" height="200" fill="#333333" stroke="#fff" stroke-width="2" stroke-dasharray="5,5" fill-opacity="0.6"/>
<text x="610" y="220" font-family="verdana" font-weight="bold" font-size="14" fill="#aaa">Module_003</text>
<rect x="200" y="200" width="200" height="200" fill="#333333" stroke="#fff" stroke-width="2" stroke-dasharray="5,5" fill-opacity="0.6"/>
<text x="210" y="220" font-family="verdana" font-weight="bold" font-size="14" fill="#aaa">Module_004</text>
<rect x="800" y="500" width="100" height="200" fill="#333333" stroke="#fff" stroke-width="2" stroke-dasharray="5,5" fill-opacity="0.6"/>
<text x="810" y="520" font-family="verdana" font-weight="bold" font-size="14" fill="#aaa">Module_005</text>
<rect x="0" y="500" width="100" height="200" fill="#333333" stroke="#fff" stroke-width="2" stroke-dasharray="5,5" fill-opacity="0.6"/>
<text x="10" y="520" font-family="verdana" font-weight="bold" font-size="14" fill="#aaa">Module_006</text>
<rect x="400" y="800" width="200" height="100" fill="#333333" stroke="#fff" stroke-width="2" stroke-dasharray="5,5" fill-opacity="0.6"/>
<text x="410" y="820" font-family="verdana" font-weight="bold" font-size="14" fill="#aaa">Module_007</text>
<circle cx="700" cy="700" r="5" fill="#ffaa00"/>
<text x="706" y="694" font-family="verdana" font-size="10" fill="#ffddaa">U_MCU</text>
<circle cx="720" cy="680" r="5" fill="#ffaa00"/>
<text x="726" y="674" font-family="verdana" font-size="10" fill="#ffddaa">C_MCU1</text>
<circle cx="720" cy="720" r="5" fill="#ffaa00"/>
<text x="726" y="714" font-family="verdana" font-size="10" fill="#ffddaa">C_MCU2</text>
<circle cx="680" cy="680" r="5" fill="#ffaa00"/>
<text x="686" y="674" font-family="verdana" font-size="10" fill="#ffddaa">C_MCU3</text>
<circle cx="680" cy="720" r="5" fill="#ffaa00"/>
<text x="686" y="714" font-family="verdana" font-size="10" fill="#ffddaa">C_MCU4</text>
<circle cx="740" cy="700" r="5" fill="#ffaa00"/>
<text x="746" y="694" font-family="verdana" font-size="10" fill="#ffddaa">C_MCU5</text>
<circle cx="660" cy="700" r="5" fill="#ffaa00"/>
<text x="666" y="694" font-family="verdana" font-size="10" fill="#ffddaa">C_MCU6</text>
<circle cx="700" cy="660" r="5" fill="#ffaa00"/>
<text x="706" y="654" font-family="verdana" font-size="10" fill="#ffddaa">C_MCU7</text>
<circle cx="700" cy="740" r="5" fill="#ffaa00"/>
<text x="706" y="734" font-family="verdana" font-size="10" fill="#ffddaa">C_MCU8</text>
<circle cx="300" cy="700" r="5" fill="#ffaa00"/>
<text x="306" y="694" font-family="verdana" font-size="10" fill="#ffddaa">U_PMIC</text>
<circle cx="250" cy="750" r="5" fill="#ffaa00"/>
<text x="256" y="744" font-family="verdana" font-size="10" fill="#ffddaa">L_PWR1</text>
<circle cx="350" cy="750" r="5" fill="#ffaa00"/>
<text x="356" y="744" font-family="verdana" font-size="10" fill="#ffddaa">L_PWR2</text>
<circle cx="250" cy="650" r="5" fill="#ffaa00"/>
<text x="256" y="644" font-family="verdana" font-size="10" fill="#ffddaa">C_PWR1</text>
<circle cx="350" cy="650" r="5" fill="#ffaa00"/>
<text x="356" y="644" font-family="verdana" font-size="10" fill="#ffddaa">C_PWR2</text>
<circle cx="300" cy="620" r="5" fill="#ffaa00"/>
<text x="306" y="614" font-family="verdana" font-size="10" fill="#ffddaa">C_PWR3</text>
<circle cx="300" cy="780" r="5" fill="#ffaa00"/>
<text x="306" y="774" font-family="verdana" font-size="10" fill="#ffddaa">C_PWR4</text>
<circle cx="650" cy="250" r="5" fill="#ffaa00"/>
<text x="656" y="244" font-family="verdana" font-size="10" fill="#ffddaa">U_FLASH</text>
<circle cx="750" cy="250" r="5" fill="#ffaa00"/>
<text x="756" y="244" font-family="verdana" font-size="10" fill="#ffddaa">U_RAM</text>
<circle cx="650" cy="350" r="5" fill="#ffaa00"/>
<text x="656" y="344" font-family="verdana" font-size="10" fill="#ffddaa">C_MEM1</text>
<circle cx="750" cy="350" r="5" fill="#ffaa00"/>
<text x="756" y="344" font-family="verdana" font-size="10" fill="#ffddaa">C_MEM2</text>
<circle cx="250" cy="300" r="5" fill="#ffaa00"/>
<text x="256" y="294" font-family="verdana" font-size="10" fill="#ffddaa">U_HUB</text>
<circle cx="350" cy="300" r="5" fill="#ffaa00"/>
<text x="356" y="294" font-family="verdana" font-size="10" fill="#ffddaa">Y_HUB</text>
<circle cx="300" cy="250" r="5" fill="#ffaa00"/>
<text x="306" y="244" font-family="verdana" font-size="10" fill="#ffddaa">C_HUB1</text>
<circle cx="300" cy="350" r="5" fill="#ffaa00"/>
<text x="306" y="344" font-family="verdana" font-size="10" fill="#ffddaa">C_HUB2</text>
<circle cx="825.0" cy="550.0" r="5" fill="#ffaa00"/>
<text x="831.0" y="544.0" font-family="verdana" font-size="10" fill="#ffddaa">U_IMU</text>
<circle cx="875.0" cy="550.0" r="5" fill="#ffaa00"/>
<text x="881.0" y="544.0" font-family="verdana" font-size="10" fill="#ffddaa">U_TEMP</text>
<circle cx="50.0" cy="600.0" r="5" fill="#ffaa00"/>
<text x="56.0" y="594.0" font-family="verdana" font-size="10" fill="#ffddaa">J_MAIN</text>
<circle cx="400" cy="800" r="5" fill="#ffaa00"/>
<text x="406" y="794" font-family="verdana" font-size="10" fill="#ffddaa">R_IO1</text>
<circle cx="420" cy="800" r="5" fill="#ffaa00"/>
<text x="426" y="794" font-family="verdana" font-size="10" fill="#ffddaa">R_IO2</text>
<circle cx="440" cy="800" r="5" fill="#ffaa00"/>
<text x="446" y="794" font-family="verdana" font-size="10" fill="#ffddaa">R_IO3</text>
<circle cx="460" cy="800" r="5" fill="#ffaa00"/>
<text x="466" y="794" font-family="verdana" font-size="10" fill="#ffddaa">R_IO4</text>
<circle cx="480" cy="800" r="5" fill="#ffaa00"/>
<text x="486" y="794" font-family="verdana" font-size="10" fill="#ffddaa">R_IO5</text>
<circle cx="500" cy="800" r="5" fill="#ffaa00"/>
<text x="506" y="794" font-family="verdana" font-size="10" fill="#ffddaa">R_IO6</text>
<circle cx="520" cy="800" r="5" fill="#ffaa00"/>
<text x="526" y="794" font-family="verdana" font-size="10" fill="#ffddaa">R_IO7</text>
<circle cx="540" cy="800" r="5" fill="#ffaa00"/>
<text x="546" y="794" font-family="verdana" font-size="10" fill="#ffddaa">R_IO8</text>
<circle cx="560" cy="800" r="5" fill="#ffaa00"/>
<text x="566" y="794" font-family="verdana" font-size="10" fill="#ffddaa">R_IO9</text>
<circle cx="580" cy="800" r="5" fill="#ffaa00"/>
<text x="586" y="794" font-family="verdana" font-size="10" fill="#ffddaa">R_IO10</text>
</svg>