<svg viewBox="0 0 500 500" width="500" height="500" xmlns="http://www.w3.org/2000/svg">
<rect x="0" y="0" width="500" height="500" fill="#2c2c2c" stroke="#111" stroke-width="4"/>
<text x="10" y="20" font-family="monospace" font-size="14" fill="#0f0">ESP32 AI-LAYOUT RENDER</text>
<rect x="0" y="250" width="150" height="100" fill="#404040" stroke="#00aaff" stroke-width="2" fill-opacity="0.8"/>
<text x="5" y="265" font-family="verdana" font-weight="bold" font-size="12" fill="#00aaff">Module_003</text>
<circle cx="30.0" cy="300.0" r="4" fill="#ffaa00"/>
<text x="36.0" y="304.0" font-family="verdana" font-size="10" fill="#ffddaa">U3</text>
<circle cx="110.0" cy="300.0" r="4" fill="#ffaa00"/>
<text x="116.0" y="304.0" font-family="verdana" font-size="10" fill="#ffddaa">J1</text>
<rect x="200" y="400" width="120" height="80" fill="#404040" stroke="#00aaff" stroke-width="2" fill-opacity="0.8"/>
<text x="205" y="415" font-family="verdana" font-weight="bold" font-size="12" fill="#00aaff">Module_001</text>
<circle cx="260.0" cy="440.0" r="4" fill="#ffaa00"/>
<text x="266.0" y="444.0" font-family="verdana" font-size="10" fill="#ffddaa">U1</text>
<circle cx="220.0" cy="420.0" r="4" fill="#ffaa00"/>
<text x="226.0" y="424.0" font-family="verdana" font-size="10" fill="#ffddaa">C1</text>
<circle cx="300.0" cy="460.0" r="4" fill="#ffaa00"/>
<text x="306.0" y="464.0" font-family="verdana" font-size="10" fill="#ffddaa">C2</text>
<rect x="350" y="150" width="150" height="120" fill="#404040" stroke="#00aaff" stroke-width="2" fill-opacity="0.8"/>
<text x="355" y="165" font-family="verdana" font-weight="bold" font-size="12" fill="#00aaff">Module_002</text>
<circle cx="425.0" cy="210.0" r="4" fill="#ffaa00"/>
<text x="431.0" y="214.0" font-family="verdana" font-size="10" fill="#ffddaa">U2</text>
<circle cx="380.0" cy="240.0" r="4" fill="#ffaa00"/>
<text x="386.0" y="244.0" font-family="verdana" font-size="10" fill="#ffddaa">C3</text>
<circle cx="470.0" cy="240.0" r="4" fill="#ffaa00"/>
<text x="476.0" y="244.0" font-family="verdana" font-size="10" fill="#ffddaa">C4</text>
<circle cx="380.0" cy="180.0" r="4" fill="#ffaa00"/>
<text x="386.0" y="184.0" font-family="verdana" font-size="10" fill="#ffddaa">SW1</text>
<circle cx="470.0" cy="180.0" r="4" fill="#ffaa00"/>
<text x="476.0" y="184.0" font-family="verdana" font-size="10" fill="#ffddaa">SW2</text>
<circle cx="425.0" cy="165.0" r="4" fill="#ffaa00"/>
<text x="431.0" y="169.0" font-family="verdana" font-size="10" fill="#ffddaa">R1</text>
</svg>